<svg aria-hidden="true" style="position: absolute; width: 0; height: 0; overflow: hidden;" version="1.1" xmlns="http://www.w3.org/2000/svg" xmlns:xlink="http://www.w3.org/1999/xlink">
<defs>
<symbol id="icon-map-pin" viewBox="0 0 32 32">
<path d="M14.565 0.114c-2.331 0.242-4.664 1.178-6.652 2.667-0.672 0.504-1.961 1.793-2.463 2.465-1.541 2.057-2.449 4.37-2.679 6.832-0.078 0.832-0.038 2.401 0.080 3.153 0.758 4.812 4.197 9.877 9.922 14.619 0.954 0.79 2.371 1.841 2.673 1.981 0.166 0.078 0.36 0.124 0.565 0.124 0.182 0 0.356-0.036 0.514-0.101l-0.009 0.003c0.496-0.226 2.475-1.749 3.811-2.935 4.608-4.091 7.509-8.269 8.535-12.294 0.338-1.324 0.402-1.849 0.4-3.343 0-1.431-0.056-1.917-0.352-3.141-0.481-1.874-1.291-3.513-2.373-4.933l0.024 0.033c-0.502-0.672-1.791-1.959-2.463-2.463-1.872-1.436-4.178-2.398-6.691-2.668l-0.059-0.005c-0.403-0.029-0.874-0.046-1.349-0.046-0.505 0-1.005 0.019-1.5 0.056l0.066-0.004zM16.886 2.669c2.177 0.192 4.134 1.001 5.732 2.249l-0.024-0.018c0.414 0.314 1.537 1.437 1.851 1.849 0.64 0.844 1.084 1.615 1.451 2.513 1.254 3.065 1.052 6.204-0.61 9.525-1.084 2.165-2.641 4.242-4.824 6.424-1.233 1.242-2.543 2.403-3.924 3.477l-0.092 0.069-0.44 0.338-0.44-0.338c-1.473-1.141-2.783-2.301-4.013-3.541l-0.002-0.002c-3.551-3.561-5.622-7.073-6.138-10.41-0.059-0.457-0.092-0.986-0.092-1.523 0-0.525 0.032-1.043 0.094-1.551l-0.006 0.061c0.305-1.928 1.070-3.637 2.178-5.067l-0.019 0.025c0.314-0.412 1.437-1.535 1.851-1.849 1.773-1.344 3.559-2.027 5.894-2.251 0.412-0.040 1.018-0.032 1.575 0.020zM15.259 8.089c-1.789 0.326-3.095 1.242-3.913 2.741-0.456 0.836-0.592 1.415-0.592 2.509 0 0.676 0.022 0.96 0.094 1.226 0.558 2.037 1.897 3.377 3.931 3.929 0.508 0.138 1.903 0.136 2.453-0.004 1.944-0.483 3.445-1.984 3.92-3.891l0.008-0.037c0.144-0.564 0.144-1.885 0-2.453-0.5-1.961-1.915-3.385-3.899-3.921-0.314-0.084-1.707-0.154-2.001-0.1zM16.548 10.694c0.196 0.042 0.496 0.144 0.668 0.226 0.41 0.2 1.008 0.798 1.206 1.208 0.16 0.33 0.302 0.9 0.302 1.21s-0.142 0.88-0.302 1.208c-0.294 0.505-0.702 0.914-1.191 1.2l-0.016 0.008c-0.33 0.16-0.9 0.302-1.21 0.302s-0.88-0.142-1.21-0.302c-0.504-0.294-0.913-0.703-1.198-1.193l-0.008-0.016c-0.165-0.354-0.273-0.765-0.302-1.198l-0.001-0.010c0-0.31 0.142-0.88 0.302-1.21 0.198-0.412 0.796-1.008 1.208-1.208 0.582-0.282 1.144-0.354 1.751-0.226z"></path>
</symbol>
<symbol id="icon-star" viewBox="0 0 32 32">
<path stroke-linejoin="miter" stroke-linecap="butt" stroke-miterlimit="4" stroke-width="2.4" d="M12.4 9.394l3.6-6.822 3.6 6.822c0.318 0.603 0.899 1.025 1.571 1.141l7.601 1.315-5.376 5.532c-0.475 0.489-0.697 1.171-0.6 1.846l1.098 7.635-6.922-3.404c-0.612-0.301-1.329-0.301-1.941 0l-6.922 3.404 1.098-7.635c0.097-0.675-0.125-1.357-0.6-1.846l-5.376-5.532 7.601-1.315c0.672-0.116 1.252-0.538 1.571-1.141z"></path>
</symbol>
<symbol id="icon-ac" viewBox="0 0 32 32">
<path d="M14.408 3.282c-2.717 0.477-4.776 2.51-5.317 5.25-0.050 0.248-0.078 0.576-0.066 0.73 0.056 0.675 0.781 1.066 1.414 0.76 0.336-0.163 0.475-0.411 0.634-1.122 0.229-1.034 0.584-1.718 1.227-2.371 0.859-0.874 2.003-1.333 3.272-1.318 0.013-0 0.028-0 0.043-0 0.696 0 1.352 0.173 1.926 0.478l-0.022-0.011c1.715 0.835 2.726 2.768 2.406 4.602-0.306 1.754-1.445 3.018-3.218 3.574l-0.469 0.147-15.581 0.053-0.216 0.144c-0.263 0.179-0.433 0.477-0.433 0.815 0 0.381 0.217 0.711 0.533 0.874l0.005 0.003 0.237 0.115 15.562-0.030 0.626-0.17c2.683-0.726 4.573-2.922 4.845-5.63 0.017-0.172 0.027-0.372 0.027-0.574 0-1.001-0.237-1.946-0.657-2.783l0.016 0.036c-0.884-1.789-2.516-3.093-4.476-3.515l-0.043-0.008c-0.552-0.12-1.722-0.144-2.277-0.046zM26.373 12.091c-2.078 0.282-3.77 1.787-4.243 3.776-0.142 0.602-0.16 1.323-0.037 1.554 0.178 0.324 0.518 0.54 0.907 0.54 0.214 0 0.412-0.065 0.576-0.176l-0.004 0.002c0.274-0.19 0.408-0.488 0.45-0.998 0.061-0.722 0.293-1.25 0.781-1.77 0.552-0.592 1.179-0.899 1.97-0.968 1.394-0.12 2.768 0.848 3.117 2.197 0.394 1.526-0.478 3.046-2.050 3.573-0.282 0.094-0.85 0.101-13.733 0.126-12.611 0.024-13.451 0.032-13.61 0.118-0.643 0.352-0.656 1.269-0.024 1.698l0.194 0.13 10.186 0.027c7.27 0.019 10.234 0.045 10.347 0.086 0.685 0.253 1.237 0.714 1.51 1.258 0.75 1.496-0.178 3.264-1.853 3.523-1.314 0.203-2.542-0.661-2.846-2.003-0.098-0.432-0.288-0.704-0.592-0.842-0.653-0.298-1.419 0.166-1.419 0.859 0 0.546 0.328 1.442 0.758 2.070 0.576 0.842 1.568 1.522 2.629 1.802 0.568 0.15 1.723 0.138 2.293-0.026 2.749-0.784 4.101-3.738 2.851-6.23l-0.245-0.49 1.736-0.021c1.669-0.021 1.758-0.027 2.254-0.16 1.709-0.456 3.038-1.749 3.536-3.403l0.009-0.035c0.13-0.426 0.144-0.547 0.144-1.322 0-0.778-0.014-0.896-0.147-1.334-0.549-1.823-2.063-3.189-3.933-3.516l-0.030-0.004c-0.273-0.044-0.587-0.069-0.908-0.069-0.203 0-0.403 0.010-0.601 0.030l0.025-0.002z"></path>
</symbol>
<symbol id="icon-petrol" viewBox="0 0 32 32">
<path d="M7.573 4.035c-1.083 0.204-1.93 1.021-2.177 2.069l-0.004 0.019c-0.042 0.2-0.059 3.403-0.059 11.080v10.797h13.334v-9.973h1.966l0.021 3.586c0.021 3.978 0.005 3.787 0.389 4.563 0.662 1.341 2.262 2.086 3.704 1.725 0.682-0.171 1.078-0.395 1.579-0.888 0.354-0.347 0.474-0.51 0.648-0.88 0.381-0.805 0.358-0.322 0.358-7.813 0-7.574 0.027-7.032-0.382-7.867-0.186-0.376-0.349-0.552-2.88-3.093l-2.682-2.693-0.707 0.706-0.707 0.707 2.814 2.816-0.288 0.147c-0.782 0.399-1.375 1.074-1.659 1.893l-0.007 0.023c-0.299 0.925-0.168 2.010 0.338 2.792 0.301 0.466 0.552 0.723 0.997 1.021 0.516 0.344 1.15 0.549 1.832 0.549 0.37 0 0.726-0.060 1.059-0.172l-0.023 0.007 0.299-0.101-0.029 9.984-0.117 0.218c-0.419 0.782-1.419 0.981-2.054 0.406-0.125-0.118-0.233-0.251-0.322-0.398l-0.005-0.008c-0.115-0.216-0.117-0.251-0.144-3.685-0.027-3.422-0.029-3.47-0.147-3.782-0.296-0.786-0.83-1.318-1.638-1.63-0.28-0.109-0.438-0.128-1.267-0.149l-0.946-0.022v-4.81c0-4.144-0.011-4.854-0.082-5.128-0.232-0.904-0.8-1.534-1.706-1.896l-0.32-0.128-4.427-0.008c-0.407-0.002-0.888-0.004-1.369-0.004-1.122 0-2.242 0.007-3.361 0.021l0.17-0.002zM16 10v3.333h-8v-6.666h8v3.333zM24.621 10.832c0.419 0.227 0.698 0.663 0.698 1.164 0 0.106-0.012 0.209-0.036 0.307l0.002-0.009c-0.138 0.592-0.661 1.027-1.286 1.027-0.364 0-0.693-0.147-0.932-0.386v0c-0.243-0.238-0.393-0.57-0.393-0.937s0.15-0.697 0.392-0.935l0-0c0.24-0.239 0.57-0.386 0.935-0.386 0.227 0 0.441 0.057 0.627 0.158l-0.007-0.003zM16 20.667v4.666h-8v-9.333h8v4.667z"></path>
</symbol>
<symbol id="icon-people" viewBox="0 0 32 32">
<path d="M20.8 5.259c-1.059 0.192-1.898 0.565-2.68 1.187-2.248 1.792-3.002 4.936-1.829 7.643 0.222 0.512 0.698 1.248 1.045 1.614l0.264 0.28-0.547 0.322c-1.58 0.93-2.856 2.222-3.742 3.766l-0.026 0.050c-0.235 0.414-0.794 1.701-0.898 2.066-0.11 0.392-0.106 1.208 0.010 1.65 0.197 0.739 0.61 1.445 1.125 1.915 0.334 0.307 1.090 0.698 1.571 0.816 0.238 0.058 1.467 0.072 6.427 0.072h6.133l0.4-0.125c1.139-0.355 1.963-1.066 2.458-2.115 0.264-0.562 0.336-0.957 0.304-1.666 0-0.003 0-0.007 0-0.010 0-0.396-0.083-0.773-0.233-1.115l0.007 0.018c-0.869-2.317-2.331-4.077-4.395-5.293-0.384-0.218-0.558-0.323-0.732-0.429l0.198 0.112c-0.011-0.008 0.077-0.122 0.195-0.251 0.768-0.834 1.285-1.882 1.514-3.074 0.098-0.515 0.083-2.013-0.027-2.514-0.517-2.362-2.112-4.141-4.274-4.771-0.408-0.118-0.605-0.142-1.307-0.157-0.118-0.005-0.256-0.008-0.394-0.008-0.199 0-0.397 0.006-0.593 0.017l0.027-0.001zM22.386 8.16c1.781 0.621 2.731 2.816 2.051 4.738-0.467 1.32-1.531 2.194-2.784 2.286-0.52 0.038-0.914-0.046-1.446-0.314-0.567-0.315-1.030-0.752-1.367-1.278l-0.009-0.015c-1.259-2.118-0.274-4.867 1.97-5.496 0.402-0.112 1.146-0.075 1.586 0.078zM8.027 9.045c-1.821 0.4-3.333 1.907-3.85 3.837-0.126 0.472-0.142 0.629-0.142 1.386 0 0.702 0.019 0.925 0.114 1.264 0.226 0.824 0.589 1.582 1.005 2.102l0.176 0.219-0.552 0.355c-1.317 0.854-2.359 2.030-3.028 3.42l-0.022 0.050c-0.478 1.008-0.514 1.957-0.112 2.946 0.301 0.739 1.010 1.512 1.702 1.854 0.667 0.328 0.973 0.357 3.709 0.338 2.618-0.018 2.611-0.016 2.965-0.352 0.282-0.267 0.379-0.526 0.379-0.997 0-0.49-0.11-0.763-0.41-1.016-0.349-0.293-0.326-0.291-2.922-0.291-2.658 0-2.618 0.005-2.922-0.341-0.214-0.245-0.218-0.387-0.016-0.875 0.509-1.265 1.458-2.264 2.654-2.825l0.032-0.014c0.632-0.301 1.165-0.422 2.091-0.482 1.24-0.077 1.92-0.264 2.752-0.755 0.456-0.269 1.272-1.048 1.579-1.509 1.454-2.174 1.142-5.027-0.758-6.933-0.576-0.591-1.293-1.042-2.097-1.299l-0.036-0.010c-0.496-0.158-1.731-0.198-2.293-0.074zM9.541 11.79c0.661 0.152 1.333 0.698 1.645 1.334 0.946 1.926-0.685 4.109-2.682 3.594-1.49-0.386-2.261-2.179-1.563-3.638 0.458-0.963 1.589-1.523 2.6-1.29zM22.722 17.842c1.346 0.219 2.664 0.923 3.733 1.995 0.632 0.637 1.046 1.221 1.437 2.034 0.301 0.626 0.336 0.898 0.181 1.357-0.12 0.35-0.554 0.795-0.856 0.875-0.158 0.043-1.845 0.056-5.84 0.045-5.549-0.014-5.618-0.014-5.802-0.123-0.358-0.21-0.693-0.896-0.619-1.27 0.090-0.45 0.632-1.509 1.088-2.126 0.789-1.042 1.823-1.858 3.019-2.37l0.048-0.018c0.73-0.316 1.58-0.499 2.473-0.499 0.402 0 0.796 0.037 1.178 0.109l-0.039-0.006z"></path>
</symbol>
<symbol id="icon-kitchen" viewBox="0 0 32 32">
<path d="M24.827 2.926c-0.269 0.123-1.811 1.69-2.608 2.646-2.163 2.6-3.542 5.23-4.184 7.974-0.358 1.533-0.491 2.762-0.526 4.91-0.032 1.904-0.021 1.997 0.264 2.323 0.336 0.382 0.173 0.363 3.427 0.392l2.933 0.027v1.6l-0.269 0.034c-0.289 0.021-0.544 0.151-0.727 0.348l-0.001 0.001c-0.307 0.323-0.309 0.342-0.309 2.829 0.002 2.107 0.010 2.299 0.101 2.496 0.069 0.137 0.152 0.255 0.252 0.357l-0-0c0.293 0.274 0.466 0.309 1.499 0.309 1.046-0.002 1.23-0.045 1.518-0.352 0.334-0.357 0.31 0.645 0.309-12.832-0.002-11.842-0.005-12.29-0.101-12.496-0.202-0.402-0.611-0.672-1.083-0.672-0.179 0-0.349 0.039-0.502 0.109l0.008-0.003zM6.16 4.259c-0.284 0.144-0.502 0.384-0.612 0.678l-0.003 0.009c-0.042 0.139-0.053 0.979-0.038 2.762 0.022 2.827 0.018 2.789 0.398 3.691 0.574 1.362 1.934 2.557 3.322 2.92l0.24 0.062 0.026 7.010c0.030 7.731 0.002 7.138 0.355 7.474 0.217 0.193 0.504 0.311 0.818 0.311s0.602-0.118 0.82-0.312l-0.001 0.001c0.354-0.336 0.326 0.258 0.355-7.474l0.027-7.010 0.24-0.062c1.386-0.363 2.746-1.558 3.32-2.92 0.381-0.902 0.378-0.864 0.4-3.691 0.014-1.782 0.002-2.622-0.040-2.762-0.112-0.302-0.329-0.543-0.606-0.683l-0.007-0.003c-0.146-0.063-0.315-0.099-0.493-0.099-0.319 0-0.611 0.117-0.835 0.31l0.002-0.001c-0.336 0.32-0.325 0.235-0.358 2.918-0.035 2.693-0.038 2.72-0.381 3.323-0.254 0.45-0.987 1.13-1.214 1.13-0.037 0-0.054-1.122-0.054-3.389 0-2.942-0.011-3.414-0.083-3.586-0.392-0.941-1.787-0.941-2.181 0-0.072 0.171-0.083 0.643-0.083 3.586 0 2.267-0.018 3.389-0.054 3.389-0.227 0-0.958-0.68-1.214-1.13-0.342-0.603-0.346-0.63-0.379-3.323-0.034-2.683-0.024-2.598-0.36-2.918-0.222-0.192-0.513-0.308-0.832-0.308-0.178 0-0.347 0.036-0.501 0.102l0.008-0.003zM24.136 18.76c-0.021 0.051-0.496 0.067-2.131 0.067-1.158 0-2.114-0.019-2.125-0.040-0.042-0.086 0.066-2.118 0.146-2.742 0.424-3.293 1.589-5.96 3.76-8.602l0.347-0.424 0.014 5.837c0.008 3.211 0.002 5.867-0.011 5.904z"></path>
</symbol>
<symbol id="icon-heart" viewBox="0 0 33 32">
<path d="M9.723 2.49c-1.652 0.055-3.429 0.663-4.815 1.645-0.592 0.42-1.503 1.309-1.913 1.871-1.199 1.635-1.772 3.361-1.772 5.333 0 1.969 0.565 3.673 1.769 5.333 0.444 0.613 12.656 12.831 13 13.007 0.365 0.187 0.984 0.187 1.349 0 0.344-0.176 12.556-12.393 13-13.007 1.211-1.669 1.769-3.363 1.769-5.361 0-2.4-0.912-4.571-2.64-6.277-1.566-1.565-3.73-2.534-6.12-2.534-0.026 0-0.052 0-0.078 0l0.004-0c-1.317 0.001-2.307 0.199-3.5 0.703-1.030 0.435-1.911 1.032-2.653 1.769l0.001-0.001-0.459 0.443-0.459-0.444c-0.742-0.734-1.622-1.33-2.598-1.744l-0.054-0.020c-1.027-0.457-2.224-0.723-3.484-0.723-0.123 0-0.245 0.003-0.367 0.008l0.017-0.001zM10.711 5.586c0.791 0.067 1.823 0.436 2.535 0.905 0.223 0.147 0.853 0.709 1.449 1.293 1.209 1.183 1.369 1.287 1.972 1.287s0.763-0.104 1.972-1.287c0.615-0.603 1.225-1.145 1.463-1.301 1.661-1.097 3.833-1.236 5.672-0.363 1.521 0.723 2.635 2.071 3.099 3.747 0.139 0.503 0.153 0.641 0.153 1.472s-0.015 0.969-0.153 1.472c-0.218 0.767-0.553 1.437-0.991 2.026l0.012-0.017c-0.191 0.251-2.633 2.736-5.779 5.88l-5.448 5.444-5.448-5.444c-3.145-3.144-5.588-5.629-5.779-5.88-0.425-0.573-0.761-1.242-0.968-1.966l-0.011-0.044c-0.139-0.503-0.153-0.641-0.153-1.472s0.015-0.969 0.153-1.472c0.543-2 2.075-3.548 4.026-4.102l0.041-0.010c0.479-0.137 1.315-0.245 1.667-0.213l0.516 0.044z"></path>
</symbol>
<symbol id="icon-heart-red" viewBox="0 0 32 32">
<path fill="#e44848" style="fill: var(--color2, #e44848)" d="M8.083 2.588c-3.54 0.563-6.401 3.157-7.248 6.568-0.166 0.614-0.261 1.32-0.261 2.047 0 0.047 0 0.095 0.001 0.142l-0-0.007c0 1.955 0.555 3.66 1.71 5.255 0.373 0.515 12.749 12.922 13.054 13.087 0.307 0.167 1.028 0.167 1.334 0 0.304-0.164 12.619-12.511 13.027-13.061 1.171-1.574 1.733-3.288 1.733-5.282 0-1.438-0.292-2.72-0.902-3.948-0.874-1.762-2.501-3.324-4.282-4.109-1.034-0.487-2.245-0.772-3.523-0.772-0.041 0-0.083 0-0.124 0.001l0.006-0c-0.027-0-0.059-0-0.091-0-1.668 0-3.226 0.472-4.547 1.29l0.037-0.021c-0.463 0.276-0.89 0.606-1.479 1.144l-0.519 0.473-0.586-0.531c-1.395-1.267-2.872-1.979-4.712-2.274-0.624-0.1-2.009-0.101-2.628-0.003z"></path>
</symbol>
<symbol id="icon-bed" viewBox="0 0 32 32">
<path d="M7.526 5.016c-1.166 0.306-2.214 1.36-2.514 2.531-0.101 0.394-0.106 0.592-0.106 3.605v3.189l-0.278 0.141c-0.997 0.499-1.885 1.477-2.35 2.586-0.381 0.906-0.374 0.811-0.397 5.17-0.024 4.333-0.035 4.171 0.317 4.531 0.243 0.25 0.445 0.336 0.784 0.339 0.011 0 0.023 0.001 0.036 0.001 0.295 0 0.563-0.115 0.762-0.302l-0.001 0.001c0.222-0.202 0.293-0.41 0.328-0.96 0.029-0.464 0.048-0.539 0.155-0.627 0.118-0.096 0.486-0.099 11.738-0.099s11.619 0.003 11.738 0.099c0.107 0.088 0.126 0.163 0.155 0.627 0.035 0.55 0.106 0.758 0.328 0.96 0.227 0.206 0.485 0.304 0.797 0.301 0.014 0.001 0.030 0.001 0.046 0.001 0.295 0 0.559-0.131 0.737-0.339l0.001-0.001c0.352-0.36 0.341-0.2 0.317-4.533-0.024-4.355-0.018-4.266-0.397-5.168-0.466-1.109-1.354-2.086-2.35-2.586l-0.278-0.141v-3.189c0-3.013-0.005-3.211-0.106-3.605-0.302-1.182-1.352-2.232-2.534-2.534-0.408-0.104-0.59-0.106-8.475-0.102-7.789 0.002-8.070 0.005-8.451 0.106zM24.066 7.245c0.299 0.147 0.654 0.531 0.742 0.802 0.074 0.226 0.133 3.443 0.062 3.413-0.845-0.383-1.009-0.464-1.172-0.545l0.674 0.303c-0.231-0.117-0.499-0.213-0.78-0.274l-0.023-0.004c-0.557-0.093-5.792-0.078-6.243 0.018-0.427 0.103-0.802 0.274-1.134 0.503l0.011-0.007-0.202 0.133-0.254-0.163c-0.338-0.23-0.737-0.399-1.167-0.483l-0.020-0.003c-0.478-0.077-5.666-0.075-6.13 0.003-0.304 0.066-0.572 0.162-0.823 0.287l0.020-0.009-0.494 0.24c-0.059 0.027-0.048-2.867 0.014-3.197 0.111-0.53 0.505-0.947 1.014-1.089l0.010-0.002c0.226-0.054 1.835-0.066 7.962-0.059l7.68 0.010 0.253 0.125zM14.373 13.219c0.248 0.114 0.315 0.184 0.427 0.451l0.082 0.197h-6.773l0.056-0.147c0.106-0.228 0.28-0.41 0.496-0.522l0.006-0.003c0.126-0.056 0.715-0.072 2.826-0.072 2.467 0 2.683 0.006 2.88 0.096zM23.322 13.194c0.228 0.111 0.408 0.295 0.511 0.52l0.003 0.007 0.056 0.147h-6.773l0.082-0.197c0.112-0.267 0.179-0.338 0.427-0.451 0.197-0.090 0.416-0.098 2.867-0.098 2.139-0.002 2.69 0.013 2.827 0.072zM25.523 16.165c0.702 0.126 1.499 0.666 1.893 1.28 0.096 0.149 0.235 0.43 0.31 0.626l0.139 0.357 0.016 2.226 0.018 2.227h-23.792v-2.043c0-1.227 0.022-2.17 0.058-2.36 0.205-1.133 1.238-2.139 2.395-2.333 0.074-0.013 4.299-0.026 9.39-0.030 6.403-0.005 9.354 0.011 9.573 0.051z"></path>
</symbol>
<symbol id="icon-transmission" viewBox="0 0 32 32">
<path d="M5.666 2.934c-1.301 0.341-2.4 1.448-2.734 2.752-0.068 0.295-0.107 0.633-0.107 0.981s0.039 0.686 0.113 1.011l-0.006-0.030c0.304 1.116 1.067 2.014 2.068 2.492l0.023 0.010 0.462 0.222 0.018 1.818 0.018 1.816 0.2 0.405c0.264 0.533 0.67 0.939 1.203 1.202l0.405 0.2 3.472 0.054 0.027 4.402 0.026 4.403 0.2 0.405c0.264 0.533 0.67 0.939 1.203 1.203l0.405 0.2 2.43 0.016c1.664 0.011 2.493-0.002 2.63-0.042 0.451-0.133 0.782-0.6 0.784-1.109 0.001-0.014 0.001-0.031 0.001-0.047 0-0.458-0.27-0.853-0.66-1.035l-0.007-0.003c-0.197-0.091-0.384-0.099-2.357-0.099-1.878-0.002-2.152-0.011-2.226-0.086-0.077-0.075-0.083-0.506-0.072-4.146l0.014-4.062 2.267-0.027c2.478-0.029 2.413-0.021 2.73-0.355 0.429-0.451 0.408-1.259-0.043-1.682-0.346-0.325-0.101-0.31-5.349-0.31-4.29 0-4.806-0.008-4.882-0.083-0.072-0.072-0.083-0.288-0.082-1.56l0.002-1.477 0.466-0.222c1.026-0.487 1.79-1.385 2.087-2.475l0.006-0.027c0.068-0.295 0.107-0.633 0.107-0.981s-0.039-0.686-0.113-1.011l0.006 0.030c-0.373-1.344-1.41-2.382-2.726-2.749l-0.028-0.007c-0.296-0.066-0.635-0.104-0.984-0.104-0.354 0-0.699 0.039-1.030 0.113l0.031-0.006zM7.197 5.318c0.531 0.189 0.92 0.762 0.92 1.35 0 0.004 0 0.008 0 0.013 0 0.786-0.638 1.424-1.424 1.424-0.009 0-0.018-0-0.027-0l0.001 0c-1 0-1.678-0.934-1.384-1.909 0.085-0.283 0.419-0.672 0.702-0.816 0.406-0.208 0.754-0.226 1.211-0.062zM22.16 9.595c-0.138 0.067-0.255 0.151-0.357 0.251l0-0c-0.318 0.341-0.31 0.216-0.309 4.165 0.002 3.405 0.006 3.627 0.101 3.829 0.4 0.867 1.662 0.899 2.13 0.053 0.069-0.125 0.094-0.36 0.115-1.093l0.027-0.933 0.773-0.032c1.122-0.046 1.589-0.24 2.294-0.95 0.438-0.443 0.742-0.974 0.848-1.488 0.035-0.218 0.055-0.469 0.055-0.725 0-0.26-0.021-0.514-0.060-0.763l0.004 0.027c-0.226-1.093-1.291-2.158-2.384-2.384-0.163-0.034-0.861-0.058-1.653-0.058-1.221 0.002-1.394 0.013-1.584 0.101zM25.075 11.989c0.227 0.144 0.375 0.393 0.375 0.678 0 0.286-0.15 0.537-0.376 0.679l-0.003 0.002c-0.152 0.094-0.269 0.114-0.693 0.117l-0.51 0.003-0.016-0.744c-0.004-0.088-0.007-0.192-0.007-0.296 0-0.185 0.008-0.368 0.023-0.549l-0.002 0.024c0.048-0.125 0.976-0.058 1.21 0.086zM22.16 21.595c-0.138 0.067-0.255 0.151-0.357 0.251l0-0c-0.315 0.336-0.31 0.282-0.309 3.499 0.002 2.755 0.008 2.962 0.101 3.162 0.124 0.263 0.335 0.468 0.596 0.581l0.008 0.003c0.318 0.133 2.234 0.117 2.782-0.022 1.344-0.373 2.381-1.411 2.747-2.728l0.007-0.028c0.144-0.558 0.144-1.403 0-1.962-0.372-1.344-1.41-2.381-2.726-2.747l-0.027-0.007c-0.346-0.088-0.589-0.106-1.509-0.104-0.955 0.002-1.126 0.014-1.312 0.101zM24.587 24.010c0.517 0.221 0.864 0.754 0.864 1.326 0 0.752-0.594 1.389-1.344 1.446l-0.24 0.018-0.014-1.413c-0.005-0.17-0.007-0.37-0.007-0.57 0-0.32 0.007-0.638 0.020-0.955l-0.002 0.045c0.035-0.090 0.395-0.038 0.723 0.102z"></path>
</symbol>
<symbol id="icon-air-conditioner" viewBox="0 0 32 32">
<path d="M2.587 0.038c-0.397 0.121-0.741 0.277-1.061 0.469l0.021-0.012c-0.602 0.412-1.071 0.977-1.357 1.639l-0.009 0.025-0.154 0.373-0.014 6.504c-0.013 5.838-0.006 6.534 0.070 6.8 0.315 1.090 1.269 2.040 2.397 2.386 0.307 0.094 0.854 0.098 13.52 0.098s13.213-0.003 13.52-0.098c1.128-0.346 2.082-1.296 2.397-2.386 0.077-0.266 0.083-0.962 0.070-6.8l-0.014-6.504-0.154-0.373c-0.376-0.901-1.078-1.603-1.955-1.97l-0.024-0.009-0.373-0.154-13.387-0.008c-7.363-0.003-13.435 0.005-13.493 0.019zM29.138 2.507c0.109 0.074 0.262 0.227 0.344 0.341l0.146 0.21v12.17l-0.131 0.186c-0.119 0.193-0.294 0.342-0.502 0.426l-0.007 0.002c-0.192 0.091-0.341 0.102-1.424 0.104l-1.208 0.002-0.022-2.014c-0.018-1.646-0.037-2.066-0.107-2.299-0.369-1.188-1.298-2.1-2.47-2.437l-0.026-0.006c-0.325-0.091-0.746-0.098-7.73-0.098-7.008 0-7.405 0.005-7.733 0.099-1.199 0.337-2.129 1.249-2.485 2.411l-0.007 0.025c-0.072 0.24-0.091 0.646-0.109 2.304l-0.022 2.014-1.208-0.002c-1.083-0.002-1.232-0.013-1.424-0.104-0.215-0.087-0.39-0.236-0.506-0.424l-0.003-0.005-0.131-0.186-0.014-5.965c-0.008-3.906 0.005-6.034 0.040-6.165 0.062-0.23 0.37-0.57 0.61-0.675 0.138-0.059 2.339-0.070 13.050-0.061l12.883 0.011 0.197 0.134zM23.179 11.546c0.169 0.053 0.314 0.14 0.434 0.253l-0-0c0.326 0.339 0.334 0.389 0.334 2.36v1.789h-15.894l0.002-1.8c0.002-1.992 0.010-2.050 0.358-2.378 0.328-0.307 0.029-0.296 7.565-0.299 5.96-0.003 6.973 0.008 7.202 0.075zM8.792 21.714c-0.16 0.059-0.298 0.142-0.418 0.245l0.002-0.002c-0.405 0.346-0.4 0.322-0.429 2.203l-0.027 1.68-0.146 0.312c-0.352 0.75-1.030 1.208-1.794 1.208-0.685 0-1.182 0.28-1.37 0.773-0.053 0.129-0.084 0.279-0.084 0.436 0 0.455 0.26 0.85 0.639 1.044l0.007 0.003c0.29 0.154 0.304 0.155 0.934 0.125 0.718-0.034 1.099-0.122 1.67-0.384 1.353-0.637 2.316-1.905 2.514-3.415l0.002-0.022c0.035-0.27 0.053-1.045 0.042-1.92-0.018-1.579-0.026-1.632-0.33-1.965-0.264-0.293-0.81-0.437-1.214-0.322zM15.667 21.704c-0.274 0.093-0.501 0.266-0.658 0.492l-0.003 0.004-0.154 0.227-0.014 4.376-0.013 4.376 0.123 0.237c0.077 0.147 0.222 0.304 0.381 0.411 0.234 0.158 0.291 0.173 0.67 0.173s0.437-0.014 0.67-0.173c0.157-0.106 0.284-0.243 0.376-0.404l0.126-0.239v-4.318c0-3.898-0.008-4.334-0.088-4.501-0.129-0.247-0.322-0.446-0.556-0.58l-0.007-0.004c-0.165-0.067-0.356-0.107-0.556-0.107-0.105 0-0.208 0.011-0.308 0.031l0.010-0.002zM22.483 21.733c-0.379 0.129-0.668 0.433-0.774 0.812l-0.002 0.008c-0.088 0.315-0.067 3.005 0.026 3.542 0.245 1.459 1.186 2.654 2.463 3.25l0.027 0.011c0.571 0.262 0.952 0.35 1.67 0.384 0.63 0.030 0.645 0.029 0.934-0.125 0.394-0.208 0.6-0.514 0.63-0.934 0.058-0.805-0.504-1.322-1.438-1.322-0.387 0-0.805-0.138-1.106-0.363-0.301-0.212-0.537-0.498-0.683-0.832l-0.005-0.013-0.146-0.312-0.027-1.68c-0.029-1.882-0.024-1.858-0.427-2.203-0.2-0.18-0.467-0.291-0.759-0.291-0.138 0-0.269 0.024-0.391 0.069l0.008-0.003z"></path>
</symbol>
<symbol id="icon-radio" viewBox="0 0 32 32">
<path d="M13.947 4.365l-5.76 2.712-0.555 0.062c-1.904 0.214-3.109 0.709-4.101 1.68-1.027 1.008-1.504 2.197-1.76 4.402-0.080 0.677-0.091 1.394-0.091 5.446s0.011 4.768 0.091 5.445c0.254 2.182 0.704 3.325 1.715 4.357 1.008 1.027 2.197 1.504 4.402 1.76 0.698 0.082 1.549 0.091 8.112 0.091s7.414-0.010 8.112-0.091c2.205-0.256 3.394-0.733 4.402-1.76 1.011-1.032 1.461-2.174 1.715-4.357 0.080-0.677 0.091-1.392 0.091-5.445s-0.011-4.77-0.091-5.446c-0.256-2.205-0.733-3.394-1.76-4.402-1.018-0.997-2.16-1.453-4.277-1.709-0.576-0.069-1.586-0.088-5.758-0.109-2.838-0.013-5.040-0.043-5.013-0.069 0.026-0.026 1.65-0.802 3.61-1.725 1.96-0.922 3.611-1.722 3.672-1.776 0.192-0.196 0.31-0.464 0.31-0.76 0-0.002 0-0.004-0-0.006v0c0-0.598-0.419-1.013-1.024-1.011-0.261 0-0.718 0.205-6.042 2.71zM21.813 9.066c1.768 0.053 2.421 0.11 3.2 0.277 2.019 0.434 2.803 1.402 3.125 3.858 0.138 1.042 0.21 5.134 0.139 7.907-0.037 1.442-0.093 2.68-0.139 3.026-0.322 2.456-1.106 3.424-3.125 3.858-0.784 0.168-1.435 0.224-3.226 0.277-2.136 0.062-9.438 0.062-11.574 0-1.79-0.053-2.442-0.109-3.226-0.277-2.048-0.44-2.861-1.478-3.149-4.018-0.162-1.43-0.195-8.002-0.051-9.957 0.146-1.973 0.469-2.971 1.197-3.698 0.867-0.866 2.054-1.165 4.963-1.25 1.981-0.056 9.997-0.059 11.866-0.003zM8.443 11.067c-1.253 0.272-2.445 1.474-2.712 2.733-0.047 0.26-0.073 0.56-0.073 0.866s0.027 0.605 0.078 0.897l-0.005-0.031c0.27 1.275 1.467 2.469 2.746 2.739 0.525 0.11 14.533 0.112 15.046 0.002 1.283-0.277 2.475-1.466 2.746-2.741 0.047-0.26 0.073-0.559 0.073-0.865s-0.027-0.605-0.078-0.896l0.005 0.031c-0.27-1.275-1.466-2.467-2.746-2.739-0.509-0.107-14.584-0.104-15.080 0.005zM23.307 13.179c0.577 0.257 0.972 0.826 0.972 1.486s-0.395 1.229-0.962 1.482l-0.010 0.004c-0.282 0.131-0.334 0.138-1.28 0.139l-0.987 0.002-0.027-0.67c-0.024-0.603-0.040-0.691-0.16-0.867-0.158-0.234-0.579-0.462-0.853-0.462s-0.694 0.229-0.853 0.462c-0.12 0.176-0.136 0.264-0.16 0.867l-0.027 0.67h-9.973l-0.294-0.139c-1.054-0.501-1.307-1.827-0.501-2.626 0.228-0.234 0.526-0.399 0.861-0.459l0.010-0.001c0.134-0.024 3.328-0.038 7.098-0.035l6.853 0.008 0.294 0.139zM9.366 19.688c-0.589 0.114-1.296 0.552-1.723 1.069-0.462 0.562-0.656 1.123-0.656 1.91 0 0.774 0.195 1.354 0.635 1.882 1.272 1.531 3.486 1.536 4.747 0.008 0.432-0.523 0.643-1.142 0.643-1.89 0-0.75-0.208-1.37-0.635-1.883-0.572-0.707-1.44-1.155-2.412-1.155-0.212 0-0.419 0.021-0.619 0.062l0.020-0.003zM16.88 21.742c-0.334 0.161-0.561 0.497-0.561 0.885 0 0.014 0 0.028 0.001 0.041l-0-0.002c0 0.416 0.187 0.73 0.544 0.912 0.189 0.096 0.371 0.101 3.803 0.101 3.43 0 3.613-0.005 3.802-0.101 0.325-0.159 0.545-0.487 0.545-0.867 0-0.016-0-0.032-0.001-0.048l0 0.002c0.001-0.014 0.001-0.030 0.001-0.046 0-0.38-0.22-0.708-0.539-0.865l-0.006-0.003c-0.189-0.096-0.368-0.101-3.813-0.098-3.195 0.002-3.635 0.011-3.776 0.086zM10.33 21.763c0.359 0.151 0.609 0.498 0.616 0.903v0.001c0 0.282-0.096 0.496-0.314 0.702-0.598 0.565-1.578 0.128-1.578-0.702 0-0.283 0.096-0.496 0.314-0.704 0.166-0.159 0.392-0.257 0.641-0.257 0.115 0 0.225 0.021 0.327 0.059l-0.006-0.002z"></path>
</symbol>
<symbol id="icon-close-button" viewBox="0 0 32 32">
<path d="M7.471 6.601c-0.329 0.116-0.757 0.554-0.872 0.891-0.054 0.153-0.086 0.33-0.086 0.515 0 0.181 0.030 0.355 0.086 0.517l-0.003-0.011c0.079 0.239 0.415 0.592 3.694 3.878l3.607 3.614-3.607 3.614c-3.279 3.286-3.615 3.639-3.694 3.878-0.191 0.581-0.064 1.126 0.364 1.554 0.427 0.428 0.972 0.555 1.554 0.364 0.239-0.079 0.592-0.415 3.878-3.694l3.614-3.607 3.614 3.607c3.286 3.279 3.639 3.615 3.878 3.694 0.581 0.191 1.126 0.064 1.554-0.364 0.428-0.427 0.555-0.972 0.364-1.554-0.079-0.239-0.415-0.592-3.694-3.878l-3.607-3.614 3.607-3.614c3.279-3.286 3.615-3.639 3.694-3.878 0.191-0.581 0.064-1.126-0.364-1.554-0.427-0.428-0.972-0.555-1.554-0.364-0.239 0.079-0.592 0.415-3.878 3.694l-3.614 3.607-3.614-3.607c-3.286-3.279-3.639-3.615-3.878-3.694-0.153-0.050-0.329-0.079-0.512-0.079-0.19 0-0.372 0.031-0.543 0.088l0.012-0.003z"></path>
</symbol>
<symbol id="icon-hob" viewBox="0 0 32 32">
<path d="M3.226 5.589c-0.667 0.234-1.199 0.711-1.5 1.322l-0.007 0.015-0.198 0.402v18.677l0.2 0.405c0.264 0.534 0.67 0.941 1.203 1.203l0.405 0.2h25.344l0.405-0.2c0.533-0.262 0.939-0.669 1.203-1.203l0.2-0.405v-18.677l-0.2-0.405c-0.26-0.527-0.677-0.943-1.188-1.196l-0.015-0.007-0.405-0.2-12.589-0.011c-11.837-0.011-12.606-0.006-12.858 0.080zM10.8 16.667v8.8l-3.395 0.013c-3.035 0.013-3.405 0.005-3.48-0.070-0.077-0.075-0.085-0.925-0.085-8.742 0-7.819 0.008-8.667 0.085-8.744 0.075-0.075 0.445-0.083 3.48-0.070l3.395 0.014v8.8zM28.077 7.923c0.075 0.077 0.083 0.942 0.083 8.744 0 7.808-0.008 8.667-0.083 8.742-0.077 0.075-0.81 0.083-7.48 0.070l-7.397-0.013-0.014-8.747c-0.006-4.811-0.002-8.776 0.013-8.813 0.019-0.053 1.55-0.067 7.41-0.067 6.642 0 7.394 0.008 7.469 0.083zM24.12 9.603c-0.148 0.081-0.273 0.185-0.376 0.307l-0.002 0.002c-0.173 0.221-7.861 11.117-8.082 11.453-0.119 0.177-0.19 0.395-0.19 0.63 0 0.328 0.139 0.624 0.36 0.832l0.001 0.001c0.499 0.485 1.165 0.498 1.637 0.035 0.202-0.198 7.938-11.115 8.245-11.637 0.098-0.165 0.126-0.291 0.126-0.558 0-0.012 0.001-0.027 0.001-0.042 0-0.395-0.201-0.743-0.507-0.946l-0.004-0.003c-0.309-0.213-0.869-0.248-1.21-0.074zM6.941 10.192c-0.261 0.078-0.68 0.52-0.754 0.792-0.040 0.149-0.054 0.754-0.043 1.814l0.016 1.592 0.162 0.23c0.088 0.126 0.264 0.302 0.39 0.39 0.206 0.146 0.272 0.162 0.621 0.162s0.416-0.016 0.621-0.162c0.126-0.088 0.302-0.264 0.392-0.39l0.162-0.23v-3.448l-0.162-0.23c-0.251-0.355-0.538-0.53-0.91-0.555-0.037-0.003-0.081-0.004-0.125-0.004-0.131 0-0.259 0.014-0.381 0.042l0.012-0.002zM6.728 16.83c-0.488 0.246-0.73 0.691-0.691 1.275 0.017 0.43 0.251 0.801 0.595 1.010l0.005 0.003c0.235 0.146 0.306 0.162 0.696 0.162 0.392 0 0.462-0.016 0.696-0.162 0.172-0.109 0.313-0.251 0.419-0.417l0.003-0.005c0.146-0.235 0.162-0.306 0.162-0.696s-0.016-0.461-0.162-0.696c-0.237-0.386-0.578-0.578-1.059-0.6-0.326-0.016-0.418 0.002-0.664 0.126zM6.728 20.83c-0.488 0.246-0.73 0.691-0.691 1.275 0.017 0.43 0.251 0.801 0.595 1.010l0.005 0.003c0.235 0.146 0.306 0.162 0.696 0.162 0.392 0 0.462-0.016 0.696-0.162 0.172-0.109 0.313-0.251 0.419-0.417l0.003-0.005c0.146-0.235 0.162-0.306 0.162-0.696s-0.016-0.461-0.162-0.696c-0.237-0.386-0.578-0.578-1.059-0.6-0.326-0.016-0.418 0.002-0.664 0.126z"></path>
</symbol>
<symbol id="icon-cd" viewBox="0 0 32 32">
<path d="M14.72 2.859c-1.77 0.213-3.034 0.578-4.507 1.298-1.446 0.709-2.344 1.354-3.523 2.533s-1.824 2.077-2.533 3.523c-0.385 0.741-0.713 1.602-0.939 2.504l-0.018 0.083c-0.296 1.189-0.347 1.659-0.347 3.2s0.051 2.011 0.347 3.2c0.23 0.928 0.496 1.645 0.957 2.587 0.709 1.446 1.354 2.344 2.533 3.523s2.077 1.824 3.523 2.533c0.741 0.385 1.602 0.713 2.504 0.939l0.083 0.018c1.189 0.296 1.659 0.347 3.2 0.347s2.011-0.051 3.2-0.347c1.868-0.488 3.499-1.303 4.913-2.387l-0.033 0.024c0.55-0.414 1.942-1.806 2.357-2.357 1.306-1.697 2.229-3.756 2.602-6.001l0.011-0.079c0.077-0.464 0.098-0.883 0.098-2 0-1.541-0.051-2.011-0.347-3.2-0.488-1.868-1.303-3.499-2.387-4.913l0.024 0.033c-0.414-0.55-1.806-1.942-2.357-2.357-1.464-1.104-3.141-1.923-4.8-2.346-1.094-0.28-1.621-0.342-3.040-0.362-0.209-0.006-0.455-0.009-0.702-0.009-0.288 0-0.574 0.004-0.86 0.013l0.042-0.001zM17.547 5.315c3.373 0.474 6.371 2.582 7.994 5.626 0.787 1.468 1.25 3.212 1.25 5.063 0 0.996-0.134 1.961-0.384 2.877l0.018-0.076c-0.906 3.31-3.277 5.979-6.419 7.222-1.191 0.484-2.572 0.765-4.018 0.765-0.926 0-1.824-0.115-2.683-0.331l0.075 0.016c-3.141-0.81-5.681-2.913-7.060-5.694l-0.028-0.063c-0.679-1.333-1.076-2.906-1.076-4.573 0-0.052 0-0.103 0.001-0.155l-0 0.008c-0-0.031-0.001-0.068-0.001-0.105 0-2.203 0.679-4.247 1.838-5.935l-0.023 0.036c1.96-2.907 5.241-4.793 8.961-4.793 0.549 0 1.088 0.041 1.615 0.12l-0.059-0.007zM15.149 7.525c-3.074 0.314-5.639 2.226-6.873 4.88l-0.022 0.052c-0.454 0.99-0.646 1.758-0.744 2.966l-0.064 0.784 0.157 0.302c0.095 0.188 0.226 0.345 0.386 0.466l0.003 0.002c0.214 0.155 0.264 0.168 0.67 0.168 0.4 0 0.461-0.014 0.666-0.157 0.374-0.259 0.493-0.525 0.541-1.221 0.115-1.637 0.666-2.918 1.726-4.029 1.074-1.122 2.478-1.752 4.174-1.872 0.696-0.048 0.962-0.166 1.221-0.541 0.142-0.205 0.157-0.266 0.157-0.666 0-0.406-0.013-0.456-0.168-0.67-0.121-0.155-0.269-0.282-0.439-0.375l-0.007-0.004c-0.304-0.16-0.506-0.173-1.384-0.088zM15.218 11.542c-1.782 0.341-3.126 1.578-3.598 3.31-0.163 0.603-0.165 1.685-0.002 2.294 0.448 1.573 1.662 2.787 3.202 3.227l0.033 0.008c0.605 0.162 1.69 0.162 2.294 0 1.572-0.45 2.786-1.663 3.227-3.202l0.008-0.033c0.162-0.605 0.162-1.69 0-2.294-0.414-1.547-1.71-2.84-3.235-3.23-0.55-0.139-1.427-0.176-1.93-0.080zM16.554 13.947c0.744 0.194 1.373 0.859 1.531 1.621 0.304 1.469-1.048 2.821-2.517 2.517-1.197-0.248-1.962-1.512-1.616-2.67 0.268-0.896 1.086-1.539 2.053-1.539 0.195 0 0.384 0.026 0.563 0.075l-0.015-0.003z"></path>
</symbol>
<symbol id="icon-calendar" viewBox="0 0 32 32">
<path d="M10.187 1.578c-0.13 0.061-0.242 0.137-0.34 0.227l0.001-0.001c-0.299 0.285-0.326 0.389-0.355 1.397l-0.026 0.933-1.814 0.030c-2 0.032-2.054 0.040-2.752 0.405-0.961 0.51-1.674 1.381-1.963 2.428l-0.006 0.028c-0.106 0.408-0.107 0.594-0.106 10.315 0.002 9.67 0.003 9.907 0.106 10.309 0.338 1.314 1.44 2.418 2.755 2.754 0.402 0.102 0.632 0.106 10.314 0.106s9.912-0.003 10.314-0.106c1.315-0.336 2.418-1.44 2.755-2.754 0.102-0.402 0.104-0.638 0.106-10.309 0.002-9.722 0-9.907-0.106-10.315-0.296-1.075-1.008-1.946-1.948-2.446l-0.021-0.010c-0.698-0.365-0.752-0.373-2.752-0.405l-1.814-0.030-0.026-0.933c-0.029-1.008-0.056-1.112-0.355-1.397-0.217-0.193-0.504-0.311-0.818-0.311s-0.602 0.118-0.82 0.312l0.001-0.001c-0.301 0.285-0.326 0.389-0.355 1.397l-0.027 0.933h-8.266l-0.027-0.933c-0.029-1.008-0.054-1.112-0.355-1.397-0.224-0.193-0.518-0.31-0.839-0.31-0.165 0-0.322 0.031-0.467 0.087l0.009-0.003zM9.493 7.467c0.029 1.008 0.056 1.112 0.355 1.397 0.55 0.523 1.504 0.368 1.877-0.304 0.069-0.126 0.094-0.36 0.115-1.093l0.027-0.934h8.266l0.027 0.934c0.029 1.008 0.054 1.112 0.355 1.397 0.217 0.193 0.504 0.311 0.818 0.311s0.602-0.118 0.82-0.312l-0.001 0.001c0.299-0.285 0.326-0.389 0.355-1.397l0.026-0.934h1.547c1.51 0.002 1.554 0.003 1.826 0.126 0.342 0.155 0.658 0.488 0.792 0.837 0.094 0.245 0.102 0.427 0.102 2.451v2.186h-21.6v-2.16c0-2.459 0.008-2.514 0.381-2.93 0.438-0.488 0.632-0.528 2.472-0.518l1.414 0.008 0.026 0.934zM26.8 20.72c0 5.957-0.003 6.197-0.102 6.45-0.155 0.37-0.433 0.664-0.782 0.834l-0.009 0.004-0.278 0.125h-9.6c-9.315 0-9.608-0.003-9.864-0.101-0.37-0.156-0.663-0.435-0.833-0.784l-0.004-0.010-0.126-0.278-0.014-6.158c-0.008-3.387-0.003-6.189 0.011-6.227 0.022-0.054 2.058-0.066 10.814-0.054l10.789 0.013v6.187z"></path>
</symbol>
<symbol id="icon-microvawe" viewBox="0 0 32 32">
<path d="M1.878 4.642c-0.762 0.11-1.506 0.776-1.757 1.571-0.098 0.314-0.098 19.261 0 19.574 0.259 0.821 0.989 1.458 1.805 1.574 0.49 0.072 27.706 0.067 28.154-0.003 0.741-0.129 1.349-0.603 1.661-1.247l0.006-0.014 0.173-0.365v-19.466l-0.173-0.365c-0.319-0.66-0.93-1.135-1.66-1.262l-0.014-0.002c-0.413-0.061-27.786-0.058-28.195 0.003zM29.733 16v9.147h-27.466l-0.014-9.094c-0.008-5.002-0.002-9.123 0.011-9.16 0.021-0.053 2.798-0.064 13.747-0.053l13.722 0.013v9.147zM6.357 9.23c-0.837 0.166-1.573 0.955-1.718 1.842-0.069 0.419-0.069 9.437 0 9.856 0.15 0.915 0.888 1.683 1.773 1.846 0.19 0.035 2.613 0.050 6.928 0.040l6.634-0.014 0.386-0.181c0.709-0.333 1.202-0.997 1.299-1.757 0.059-0.464 0.059-9.261 0-9.725-0.11-0.783-0.606-1.431-1.285-1.751l-0.014-0.006-0.386-0.181-6.693-0.008c-3.682-0.005-6.797 0.013-6.923 0.038zM24.987 10.325c-0.038 0.011-0.115 0.029-0.193 0.045l-0.036 0.006c-0.171 0.037-0.547 0.392-0.634 0.595-0.168 0.403-0.050 0.994 0.258 1.28 0.253 0.237 0.469 0.282 1.325 0.282 0.877 0 1.072-0.045 1.35-0.309 0.232-0.221 0.32-0.432 0.325-0.784 0.001-0.014 0.001-0.029 0.001-0.045 0-0.395-0.215-0.739-0.535-0.921l-0.005-0.003c-0.234-0.136-0.29-0.146-0.998-0.158-0.090-0.003-0.196-0.005-0.302-0.005-0.195 0-0.389 0.007-0.581 0.020l0.026-0.001zM19.467 16v4.587h-12.64v-9.174h12.64v4.587zM24.65 15.018c-0.426 0.214-0.57 0.462-0.57 0.982 0 0.526 0.146 0.773 0.581 0.986 0.286 0.141 0.31 0.144 1.146 0.126 0.85-0.019 0.851-0.019 1.083-0.181 0.302-0.204 0.498-0.545 0.498-0.931s-0.196-0.727-0.494-0.929l-0.004-0.003-0.232-0.162-0.862-0.018c-0.845-0.016-0.867-0.013-1.146 0.128z"></path>
</symbol>
<symbol id="icon-shower" viewBox="0 0 32 32">
<path d="M4.853 4.165c-0.285 0.124-0.512 0.336-0.652 0.601l-0.003 0.007c-0.147 0.278-0.155 0.826-0.016 1.094 0.053 0.102 0.706 0.798 1.45 1.546l1.352 1.36-0.189 0.294c-0.799 1.217-1.275 2.709-1.275 4.312 0 1.552 0.446 2.999 1.216 4.221l-0.019-0.033 0.227 0.368-0.666 0.672c-0.366 0.37-0.706 0.752-0.754 0.848-0.299 0.598-0.038 1.354 0.579 1.678 0.165 0.075 0.359 0.119 0.562 0.119s0.397-0.044 0.571-0.122l-0.009 0.004c0.269-0.144 13.792-13.675 13.926-13.934 0.139-0.269 0.13-0.814-0.018-1.093-0.322-0.608-1.029-0.875-1.616-0.61-0.157 0.069-0.474 0.341-0.912 0.776l-0.672 0.669-0.368-0.227c-0.73-0.454-1.577-0.81-2.481-1.019l-0.057-0.011c-0.487-0.105-1.047-0.165-1.62-0.165-1.613 0-3.115 0.475-4.374 1.293l0.031-0.019-0.294 0.189-1.36-1.355c-1.446-1.443-1.616-1.571-2.080-1.571-0.175 0.008-0.339 0.047-0.489 0.112l0.009-0.003zM14.69 8.235c0.486 0.126 1.363 0.486 1.363 0.56 0 0.042-7.216 7.258-7.258 7.258-0.018 0-0.12-0.187-0.227-0.416-0.411-0.875-0.597-2.062-0.462-2.95 0.334-2.312 2.096-4.131 4.349-4.549l0.033-0.005c0.586-0.112 1.541-0.067 2.202 0.102zM20.853 12.165c-0.518 0.235-0.77 0.624-0.77 1.195 0 0.416 0.074 0.603 0.354 0.882 0.224 0.228 0.536 0.37 0.881 0.37 0.005 0 0.011-0 0.016-0h-0.001c0.502-0.006 0.935-0.289 1.157-0.703l0.003-0.007c0.136-0.251 0.123-0.853-0.022-1.128-0.227-0.424-0.69-0.717-1.138-0.717-0.175 0.008-0.339 0.047-0.489 0.112l0.009-0.003zM26.187 13.498c-0.52 0.235-0.771 0.624-0.771 1.195 0 0.418 0.075 0.603 0.355 0.883 0.243 0.243 0.547 0.368 0.896 0.368 0.501-0.007 0.935-0.29 1.157-0.703l0.003-0.007c0.134-0.25 0.122-0.853-0.024-1.126-0.226-0.426-0.69-0.718-1.136-0.718-0.175 0.008-0.339 0.048-0.489 0.112l0.009-0.004zM16.853 16.165c-0.518 0.235-0.77 0.624-0.77 1.195 0 0.416 0.074 0.603 0.354 0.882 0.224 0.228 0.536 0.37 0.881 0.37 0.005 0 0.011-0 0.016-0h-0.001c0.502-0.006 0.935-0.289 1.157-0.703l0.003-0.007c0.136-0.251 0.123-0.853-0.022-1.128-0.227-0.424-0.69-0.717-1.138-0.717-0.175 0.008-0.339 0.047-0.489 0.112l0.009-0.003zM22.187 17.498c-0.52 0.235-0.771 0.624-0.771 1.195 0 0.418 0.075 0.603 0.355 0.883 0.243 0.243 0.547 0.368 0.896 0.368 0.501-0.006 0.935-0.29 1.157-0.703l0.003-0.007c0.134-0.25 0.122-0.853-0.024-1.126-0.226-0.426-0.69-0.718-1.136-0.718-0.175 0.008-0.339 0.048-0.489 0.112l0.009-0.003zM12.853 20.165c-0.518 0.235-0.77 0.624-0.77 1.195 0 0.416 0.074 0.603 0.354 0.882 0.224 0.228 0.536 0.37 0.881 0.37 0.005 0 0.011-0 0.016-0h-0.001c0.502-0.006 0.935-0.289 1.157-0.703l0.003-0.007c0.136-0.251 0.123-0.853-0.022-1.128-0.227-0.424-0.69-0.717-1.138-0.717-0.175 0.008-0.339 0.047-0.489 0.112l0.009-0.003zM18.187 21.498c-0.52 0.235-0.771 0.624-0.771 1.195 0 0.418 0.075 0.603 0.355 0.883 0.243 0.243 0.547 0.368 0.896 0.368 0.501-0.006 0.935-0.29 1.157-0.703l0.003-0.007c0.134-0.25 0.122-0.853-0.024-1.126-0.226-0.426-0.69-0.718-1.136-0.718-0.175 0.008-0.339 0.048-0.489 0.112l0.009-0.003zM14.187 25.498c-0.52 0.235-0.771 0.624-0.771 1.195 0 0.418 0.075 0.603 0.355 0.883 0.229 0.229 0.546 0.371 0.896 0.371s0.667-0.142 0.896-0.371v0c0.28-0.28 0.354-0.466 0.354-0.883 0-0.414-0.11-0.69-0.379-0.942-0.231-0.208-0.534-0.342-0.867-0.361l-0.004-0c-0.175 0.008-0.339 0.048-0.489 0.112l0.009-0.003z"></path>
</symbol>
<symbol id="icon-toilet" viewBox="0 0 32 32">
<path d="M7.333 4.078c-1.216 0.267-2.277 1.197-3.134 2.749-0.629 1.136-1.147 2.931-1.408 4.886-0.115 0.864-0.133 3.491-0.029 4.339 0.19 1.554 0.546 3.035 1.005 4.176 0.741 1.845 1.901 3.154 3.189 3.597 0.382 0.131 0.506 0.147 1.072 0.144 0.579-0.003 0.68-0.019 1.072-0.166 0.506-0.19 0.939-0.458 1.306-0.8l0.262-0.245 0.002 2.074c0.002 1.594 0.019 2.122 0.074 2.275 0.176 0.483 0.612 0.831 1.134 0.876l0.005 0c0.288 0.027 0.442-0.016 2.214-0.603l1.904-0.632 1.885 0.626c1.037 0.344 1.962 0.626 2.056 0.626 0.093 0 1.045-0.146 2.114-0.325l1.946-0.325 1.982 0.331c1.414 0.235 2.051 0.322 2.222 0.298 0.514-0.087 0.924-0.457 1.068-0.941l0.002-0.009c0.048-0.174 0.059-1.974 0.043-7.482-0.018-6.402-0.030-7.326-0.107-7.867-0.219-1.522-0.518-2.741-0.928-3.787-0.456-1.163-0.971-1.979-1.718-2.725-0.437-0.434-0.59-0.549-1.019-0.762-0.877-0.432-0.234-0.405-9.573-0.402-6.674 0.003-8.382 0.018-8.64 0.074zM8.33 6.779c0.798 0.406 1.618 2.029 2.016 3.989 0.72 3.55 0.136 7.862-1.33 9.821-0.546 0.728-1.013 0.893-1.515 0.531-0.914-0.658-1.714-2.63-2.040-5.040-0.133-0.97-0.133-3.19 0-4.16 0.349-2.57 1.229-4.629 2.197-5.139 0.267-0.141 0.402-0.141 0.672-0.002zM24.33 6.779c0.792 0.403 1.618 2.030 2.014 3.968 0.293 1.427 0.286 1.283 0.309 8.040 0.019 6.022 0.016 6.28-0.077 6.278-0.053 0-0.589-0.083-1.189-0.186-0.361-0.071-0.826-0.137-1.297-0.182l-0.063-0.005c-0.147 0-1.085 0.134-2.085 0.299l-1.816 0.302-1.947-0.648c-1.277-0.424-2.026-0.646-2.176-0.646-0.178 0-1.875 0.514-2.6 0.786-0.050 0.018-0.069-1.395-0.085-6.234-0.018-5.528-0.030-6.333-0.11-6.893-0.264-1.842-0.658-3.27-1.23-4.459 0.131 0.314 0.053 0.152-0.026-0.010l-0.21-0.482c-0.010-0.022 2.77-0.040 6.176-0.040 6.182 0 6.194 0 6.411 0.112zM7.515 11.533c-0.28 0.216-0.538 0.67-0.698 1.238-0.176 0.622-0.176 1.838 0 2.453 0.55 1.918 1.814 1.918 2.365 0 0.176-0.614 0.176-1.83 0-2.453-0.256-0.902-0.682-1.411-1.182-1.411-0.21 0-0.301 0.032-0.485 0.173z"></path>
</symbol>
<symbol id="icon-gas" viewBox="0 0 32 32">
<path d="M18.667 1.731c-1.842 0.542-3.922 1.938-5.317 3.57-1.661 1.916-2.712 4.401-2.826 7.128l-0.001 0.024c-0.061 1.574 0.17 2.874 0.837 4.693 0.138 0.376 0.118 0.6-0.075 0.851-0.269 0.355-0.787 0.459-1.226 0.246-0.253-0.123-0.646-0.594-1.042-1.243-1.126-1.854-1.318-4.354-0.49-6.384 0.090-0.218 0.155-0.405 0.146-0.413-0.045-0.046-0.875 0.733-1.277 1.195-1.965 2.269-2.917 5.39-2.493 8.173 0.254 1.67 1.013 3.603 1.85 4.714 1.524 1.988 3.653 3.445 6.109 4.1l0.079 0.018c0.941 0.242 1.701 0.339 2.925 0.379 4.854 0.157 8.718-1.858 10.453-5.45 0.334-0.691 0.616-1.55 0.754-2.293 0.147-0.787 0.134-2.307-0.024-3.048-0.254-1.192-0.621-2.005-1.466-3.262-0.79-1.176-1.501-1.856-3.195-3.056-1.221-0.864-1.584-1.155-2.106-1.686-1.997-2.024-2.565-5.304-1.37-7.904 0.099-0.218 0.176-0.413 0.168-0.434-0.008-0.019-0.195 0.018-0.414 0.082zM17.058 14.040c0.278 0.504 0.67 1.059 1.029 1.451 0.238 0.261 1.598 1.458 2.051 1.805 0.222 0.171 0.77 0.893 0.955 1.262 0.302 0.6 0.418 1.152 0.384 1.842-0.019 0.678-0.199 1.309-0.503 1.863l0.011-0.021c-0.55 1.066-1.394 1.744-2.669 2.154-1.112 0.355-2.109 0.285-3.245-0.229-0.464-0.211-1.413-0.862-1.416-0.973 0-0.019 0.069-0.048 0.155-0.066 0.334-0.066 1.030-0.373 1.402-0.616 0.748-0.493 1.323-1.194 1.649-2.020l0.010-0.029c0.157-0.41 0.166-0.478 0.165-1.13-0.003-0.622-0.022-0.766-0.197-1.424-0.32-1.205-0.381-1.592-0.376-2.416 0.002-0.578 0.027-0.837 0.112-1.146 0.12-0.44 0.21-0.694 0.246-0.694 0.013 0 0.118 0.174 0.237 0.387z"></path>
</symbol>
<symbol id="icon-water" viewBox="0 0 32 32">
<path d="M15.592 2.346c-0.347 0.091-0.649 0.251-0.902 0.467l0.003-0.003c-0.088 0.083-0.486 0.546-0.885 1.030-2.493 3.027-4.523 6.075-5.933 8.907-1.043 2.096-1.59 3.658-1.936 5.52-0.078 0.429-0.098 0.792-0.096 1.866 0.002 1.469 0.072 2.034 0.394 3.182 0.986 3.509 3.587 5.896 7.222 6.63 0.93 0.187 1.483 0.24 2.541 0.24 0.514 0 1.149-0.024 1.413-0.054 4.965-0.565 8.182-3.81 8.726-8.8 0.078-0.723 0.034-2.432-0.082-3.064-0.33-1.819-0.896-3.435-1.933-5.52-1.413-2.84-3.442-5.883-5.939-8.914-0.319-0.398-0.627-0.75-0.949-1.089l0.007 0.007c-0.405-0.341-1.125-0.517-1.651-0.406zM16.419 5.45c3.179 3.902 5.666 7.997 6.712 11.058 0.413 1.205 0.595 2.133 0.64 3.234 0.078 1.973-0.408 3.819-1.355 5.152-0.594 0.792-1.327 1.444-2.169 1.93l-0.035 0.018c-1.739 0.96-4.522 1.229-6.746 0.651-1.867-0.486-3.349-1.594-4.245-3.174-0.83-1.464-1.181-3.531-0.928-5.461 0.344-2.624 1.99-6.096 4.797-10.11 0.902-1.293 2.818-3.781 2.909-3.779 0.014 0 0.203 0.218 0.419 0.482zM20.962 19.451c-0.437 0.229-0.59 0.478-0.654 1.064-0.086 0.779-0.146 1.016-0.373 1.469-0.158 0.315-0.357 0.585-0.594 0.815l-0.001 0.001c-0.626 0.632-1.214 0.901-2.16 0.99-0.674 0.064-0.944 0.195-1.181 0.568-0.124 0.18-0.198 0.402-0.198 0.642 0 0.295 0.112 0.564 0.297 0.766l-0.001-0.001c0.267 0.31 0.533 0.419 1.030 0.421 2.922 0.008 5.506-2.547 5.555-5.493 0.008-0.424-0.010-0.541-0.104-0.72-0.189-0.374-0.562-0.631-0.997-0.651l-0.003-0c-0.043-0.008-0.093-0.012-0.143-0.012-0.176 0-0.34 0.053-0.476 0.144l0.003-0.002z"></path>
</symbol>
<symbol id="icon-freezer" viewBox="0 0 32 32">
<path d="M7.973 2.027c-1.040 0.208-1.907 1-2.28 2.080l-0.12 0.346-0.014 10.32c-0.010 6.69 0.003 10.512 0.038 10.862 0.029 0.299 0.102 0.669 0.16 0.822 0.234 0.613 0.818 1.291 1.358 1.574 0.266 0.139 0.288 0.165 0.312 0.371 0.062 0.558 0.522 1.166 1.093 1.446 0.306 0.15 0.314 0.15 1.52 0.168 1.376 0.019 1.592-0.018 2.038-0.333 0.346-0.246 0.589-0.562 0.728-0.946l0.115-0.312h6.17l0.035 0.146c0.122 0.504 0.584 1.053 1.086 1.29 0.291 0.136 0.304 0.138 1.627 0.138s1.336-0.002 1.627-0.138c0.558-0.262 0.97-0.784 1.094-1.381 0.058-0.282 0.072-0.299 0.376-0.477 0.638-0.371 1.162-1.043 1.39-1.792 0.094-0.306 0.099-0.782 0.099-10.986 0-8.862-0.013-10.717-0.074-10.96-0.264-1.059-1.251-2.022-2.29-2.235-0.334-0.069-15.746-0.074-16.091-0.005zM23.971 4.234c0.125 0.104 0.226 0.232 0.299 0.376l0.003 0.007c0.096 0.218 0.099 0.398 0.086 3.846l-0.013 3.618h-16.694v-7.368l0.147-0.221c0.093-0.132 0.208-0.242 0.342-0.325l0.005-0.003c0.197-0.104 0.309-0.106 7.91-0.094l7.71 0.011 0.203 0.154zM9.893 5.594c-0.244 0.107-0.433 0.303-0.527 0.545l-0.002 0.007c-0.070 0.168-0.083 0.534-0.083 2.422 0 2.166 0.003 2.232 0.114 2.461 0.163 0.325 0.494 0.545 0.876 0.545 0.013 0 0.027-0 0.040-0.001l-0.002 0c0.008 0 0.018 0 0.027 0 0.156 0 0.305-0.028 0.442-0.080l-0.009 0.003c0.246-0.151 0.434-0.377 0.533-0.646l0.003-0.009c0.074-0.27 0.075-4.344 0-4.613-0.162-0.584-0.85-0.893-1.411-0.635zM24.347 19.923v5.765l-0.144 0.216c-0.097 0.138-0.223 0.25-0.37 0.327l-0.006 0.003-0.234 0.114h-7.586c-6.253 0-7.614-0.013-7.757-0.072-0.271-0.128-0.475-0.36-0.564-0.642l-0.002-0.008c-0.064-0.258-0.086-11.394-0.022-11.458 0.019-0.019 3.782-0.029 8.36-0.021l8.325 0.013v5.763zM10.056 14.406c-0.299 0.076-0.54 0.277-0.671 0.541l-0.003 0.006c-0.093 0.203-0.101 0.386-0.101 2.459 0 2.059 0.008 2.258 0.099 2.456 0.342 0.754 1.382 0.808 1.826 0.094l0.126-0.203v-4.64l-0.141-0.24c-0.184-0.304-0.513-0.504-0.888-0.504-0.088 0-0.173 0.011-0.255 0.032l0.007-0.002z"></path>
</symbol>
</defs>
</svg>
