<svg aria-hidden="true" style="position: absolute; width: 0; height: 0; overflow: hidden;" version="1.1" xmlns="http://www.w3.org/2000/svg" xmlns:xlink="http://www.w3.org/1999/xlink">
<defs>
<symbol id="icon-map-pin" viewBox="0 0 32 32">
<path d="M14.565 0.114c-2.331 0.242-4.664 1.178-6.652 2.667-0.672 0.504-1.961 1.793-2.463 2.465-1.541 2.057-2.449 4.37-2.679 6.832-0.078 0.832-0.038 2.401 0.080 3.153 0.758 4.812 4.197 9.877 9.922 14.619 0.954 0.79 2.371 1.841 2.673 1.981 0.166 0.078 0.36 0.124 0.565 0.124 0.182 0 0.356-0.036 0.514-0.101l-0.009 0.003c0.496-0.226 2.475-1.749 3.811-2.935 4.608-4.091 7.509-8.269 8.535-12.294 0.338-1.324 0.402-1.849 0.4-3.343 0-1.431-0.056-1.917-0.352-3.141-0.481-1.874-1.291-3.513-2.373-4.933l0.024 0.033c-0.502-0.672-1.791-1.959-2.463-2.463-1.872-1.436-4.178-2.398-6.691-2.668l-0.059-0.005c-0.403-0.029-0.874-0.046-1.349-0.046-0.505 0-1.005 0.019-1.5 0.056l0.066-0.004zM16.886 2.669c2.177 0.192 4.134 1.001 5.732 2.249l-0.024-0.018c0.414 0.314 1.537 1.437 1.851 1.849 0.64 0.844 1.084 1.615 1.451 2.513 1.254 3.065 1.052 6.204-0.61 9.525-1.084 2.165-2.641 4.242-4.824 6.424-1.233 1.242-2.543 2.403-3.924 3.477l-0.092 0.069-0.44 0.338-0.44-0.338c-1.473-1.141-2.783-2.301-4.013-3.541l-0.002-0.002c-3.551-3.561-5.622-7.073-6.138-10.41-0.059-0.457-0.092-0.986-0.092-1.523 0-0.525 0.032-1.043 0.094-1.551l-0.006 0.061c0.305-1.928 1.070-3.637 2.178-5.067l-0.019 0.025c0.314-0.412 1.437-1.535 1.851-1.849 1.773-1.344 3.559-2.027 5.894-2.251 0.412-0.040 1.018-0.032 1.575 0.020zM15.259 8.089c-1.789 0.326-3.095 1.242-3.913 2.741-0.456 0.836-0.592 1.415-0.592 2.509 0 0.676 0.022 0.96 0.094 1.226 0.558 2.037 1.897 3.377 3.931 3.929 0.508 0.138 1.903 0.136 2.453-0.004 1.944-0.483 3.445-1.984 3.92-3.891l0.008-0.037c0.144-0.564 0.144-1.885 0-2.453-0.5-1.961-1.915-3.385-3.899-3.921-0.314-0.084-1.707-0.154-2.001-0.1zM16.548 10.694c0.196 0.042 0.496 0.144 0.668 0.226 0.41 0.2 1.008 0.798 1.206 1.208 0.16 0.33 0.302 0.9 0.302 1.21s-0.142 0.88-0.302 1.208c-0.294 0.505-0.702 0.914-1.191 1.2l-0.016 0.008c-0.33 0.16-0.9 0.302-1.21 0.302s-0.88-0.142-1.21-0.302c-0.504-0.294-0.913-0.703-1.198-1.193l-0.008-0.016c-0.165-0.354-0.273-0.765-0.302-1.198l-0.001-0.010c0-0.31 0.142-0.88 0.302-1.21 0.198-0.412 0.796-1.008 1.208-1.208 0.582-0.282 1.144-0.354 1.751-0.226z"></path>
</symbol>
<symbol id="icon-star" viewBox="0 0 32 32">
<path fill="#ffc531" style="fill: var(--color1, #ffc531)" d="M14.725 7.559c-0.687 1.345-1.171 2.227-1.671 3.098l0.214-0.405c-0.321 0.447-0.72 0.816-1.181 1.092l-0.018 0.010c-0.464 0.246-0.874 0.338-3.641 0.81-1.375 0.217-2.27 0.382-3.16 0.562l0.521-0.088c-0.088 0.036 0.186 0.34 1.921 2.123 1.288 1.322 2.091 2.189 2.203 2.379 0.31 0.518 0.45 1.008 0.474 1.641 0.016 0.48-0.036 0.94-0.374 3.267-0.214 1.489-0.372 2.707-0.346 2.707 0.024 0 1.19-0.562 2.591-1.248 1.467-0.72 2.693-1.288 2.893-1.342 0.458-0.12 1.25-0.12 1.709 0 0.2 0.054 1.427 0.622 2.893 1.342 1.401 0.686 2.567 1.248 2.591 1.248 0.026 0-0.132-1.218-0.346-2.707-0.338-2.327-0.39-2.787-0.374-3.267 0.024-0.632 0.164-1.122 0.474-1.641 0.112-0.19 0.91-1.052 2.201-2.379 1.729-1.779 2.011-2.089 1.921-2.123-0.379-0.094-1.273-0.26-2.173-0.41l-0.464-0.064c-2.767-0.472-3.177-0.564-3.641-0.81-0.4-0.214-0.94-0.71-1.198-1.102-0.286-0.466-0.77-1.348-1.239-2.239l-0.218-0.454c-0.63-1.24-1.056-2.020-1.494-2.792l0.214 0.409c-0.014 0-0.59 1.072-1.28 2.383z"></path>
</symbol>
<symbol id="icon-ac" viewBox="0 0 32 32">
<path d="M14.408 3.282c-2.717 0.477-4.776 2.51-5.317 5.25-0.050 0.248-0.078 0.576-0.066 0.73 0.056 0.675 0.781 1.066 1.414 0.76 0.336-0.163 0.475-0.411 0.634-1.122 0.229-1.034 0.584-1.718 1.227-2.371 0.859-0.874 2.003-1.333 3.272-1.318 0.013-0 0.028-0 0.043-0 0.696 0 1.352 0.173 1.926 0.478l-0.022-0.011c1.715 0.835 2.726 2.768 2.406 4.602-0.306 1.754-1.445 3.018-3.218 3.574l-0.469 0.147-15.581 0.053-0.216 0.144c-0.263 0.179-0.433 0.477-0.433 0.815 0 0.381 0.217 0.711 0.533 0.874l0.005 0.003 0.237 0.115 15.562-0.030 0.626-0.17c2.683-0.726 4.573-2.922 4.845-5.63 0.017-0.172 0.027-0.372 0.027-0.574 0-1.001-0.237-1.946-0.657-2.783l0.016 0.036c-0.884-1.789-2.516-3.093-4.476-3.515l-0.043-0.008c-0.552-0.12-1.722-0.144-2.277-0.046zM26.373 12.091c-2.078 0.282-3.77 1.787-4.243 3.776-0.142 0.602-0.16 1.323-0.037 1.554 0.178 0.324 0.518 0.54 0.907 0.54 0.214 0 0.412-0.065 0.576-0.176l-0.004 0.002c0.274-0.19 0.408-0.488 0.45-0.998 0.061-0.722 0.293-1.25 0.781-1.77 0.552-0.592 1.179-0.899 1.97-0.968 1.394-0.12 2.768 0.848 3.117 2.197 0.394 1.526-0.478 3.046-2.050 3.573-0.282 0.094-0.85 0.101-13.733 0.126-12.611 0.024-13.451 0.032-13.61 0.118-0.643 0.352-0.656 1.269-0.024 1.698l0.194 0.13 10.186 0.027c7.27 0.019 10.234 0.045 10.347 0.086 0.685 0.253 1.237 0.714 1.51 1.258 0.75 1.496-0.178 3.264-1.853 3.523-1.314 0.203-2.542-0.661-2.846-2.003-0.098-0.432-0.288-0.704-0.592-0.842-0.653-0.298-1.419 0.166-1.419 0.859 0 0.546 0.328 1.442 0.758 2.070 0.576 0.842 1.568 1.522 2.629 1.802 0.568 0.15 1.723 0.138 2.293-0.026 2.749-0.784 4.101-3.738 2.851-6.23l-0.245-0.49 1.736-0.021c1.669-0.021 1.758-0.027 2.254-0.16 1.709-0.456 3.038-1.749 3.536-3.403l0.009-0.035c0.13-0.426 0.144-0.547 0.144-1.322 0-0.778-0.014-0.896-0.147-1.334-0.549-1.823-2.063-3.189-3.933-3.516l-0.030-0.004c-0.273-0.044-0.587-0.069-0.908-0.069-0.203 0-0.403 0.010-0.601 0.030l0.025-0.002z"></path>
</symbol>
<symbol id="icon-petrol" viewBox="0 0 32 32">
<path d="M7.573 4.035c-1.083 0.204-1.93 1.021-2.177 2.069l-0.004 0.019c-0.042 0.2-0.059 3.403-0.059 11.080v10.797h13.334v-9.973h1.966l0.021 3.586c0.021 3.978 0.005 3.787 0.389 4.563 0.662 1.341 2.262 2.086 3.704 1.725 0.682-0.171 1.078-0.395 1.579-0.888 0.354-0.347 0.474-0.51 0.648-0.88 0.381-0.805 0.358-0.322 0.358-7.813 0-7.574 0.027-7.032-0.382-7.867-0.186-0.376-0.349-0.552-2.88-3.093l-2.682-2.693-0.707 0.706-0.707 0.707 2.814 2.816-0.288 0.147c-0.782 0.399-1.375 1.074-1.659 1.893l-0.007 0.023c-0.299 0.925-0.168 2.010 0.338 2.792 0.301 0.466 0.552 0.723 0.997 1.021 0.516 0.344 1.15 0.549 1.832 0.549 0.37 0 0.726-0.060 1.059-0.172l-0.023 0.007 0.299-0.101-0.029 9.984-0.117 0.218c-0.419 0.782-1.419 0.981-2.054 0.406-0.125-0.118-0.233-0.251-0.322-0.398l-0.005-0.008c-0.115-0.216-0.117-0.251-0.144-3.685-0.027-3.422-0.029-3.47-0.147-3.782-0.296-0.786-0.83-1.318-1.638-1.63-0.28-0.109-0.438-0.128-1.267-0.149l-0.946-0.022v-4.81c0-4.144-0.011-4.854-0.082-5.128-0.232-0.904-0.8-1.534-1.706-1.896l-0.32-0.128-4.427-0.008c-0.407-0.002-0.888-0.004-1.369-0.004-1.122 0-2.242 0.007-3.361 0.021l0.17-0.002zM16 10v3.333h-8v-6.666h8v3.333zM24.621 10.832c0.419 0.227 0.698 0.663 0.698 1.164 0 0.106-0.012 0.209-0.036 0.307l0.002-0.009c-0.138 0.592-0.661 1.027-1.286 1.027-0.364 0-0.693-0.147-0.932-0.386v0c-0.243-0.238-0.393-0.57-0.393-0.937s0.15-0.697 0.392-0.935l0-0c0.24-0.239 0.57-0.386 0.935-0.386 0.227 0 0.441 0.057 0.627 0.158l-0.007-0.003zM16 20.667v4.666h-8v-9.333h8v4.667z"></path>
</symbol>
<symbol id="icon-people" viewBox="0 0 32 32">
<path d="M20.8 5.259c-1.059 0.192-1.898 0.565-2.68 1.187-2.248 1.792-3.002 4.936-1.829 7.643 0.222 0.512 0.698 1.248 1.045 1.614l0.264 0.28-0.547 0.322c-1.58 0.93-2.856 2.222-3.742 3.766l-0.026 0.050c-0.235 0.414-0.794 1.701-0.898 2.066-0.11 0.392-0.106 1.208 0.010 1.65 0.197 0.739 0.61 1.445 1.125 1.915 0.334 0.307 1.090 0.698 1.571 0.816 0.238 0.058 1.467 0.072 6.427 0.072h6.133l0.4-0.125c1.139-0.355 1.963-1.066 2.458-2.115 0.264-0.562 0.336-0.957 0.304-1.666 0-0.003 0-0.007 0-0.010 0-0.396-0.083-0.773-0.233-1.115l0.007 0.018c-0.869-2.317-2.331-4.077-4.395-5.293-0.384-0.218-0.558-0.323-0.732-0.429l0.198 0.112c-0.011-0.008 0.077-0.122 0.195-0.251 0.768-0.834 1.285-1.882 1.514-3.074 0.098-0.515 0.083-2.013-0.027-2.514-0.517-2.362-2.112-4.141-4.274-4.771-0.408-0.118-0.605-0.142-1.307-0.157-0.118-0.005-0.256-0.008-0.394-0.008-0.199 0-0.397 0.006-0.593 0.017l0.027-0.001zM22.386 8.16c1.781 0.621 2.731 2.816 2.051 4.738-0.467 1.32-1.531 2.194-2.784 2.286-0.52 0.038-0.914-0.046-1.446-0.314-0.567-0.315-1.030-0.752-1.367-1.278l-0.009-0.015c-1.259-2.118-0.274-4.867 1.97-5.496 0.402-0.112 1.146-0.075 1.586 0.078zM8.027 9.045c-1.821 0.4-3.333 1.907-3.85 3.837-0.126 0.472-0.142 0.629-0.142 1.386 0 0.702 0.019 0.925 0.114 1.264 0.226 0.824 0.589 1.582 1.005 2.102l0.176 0.219-0.552 0.355c-1.317 0.854-2.359 2.030-3.028 3.42l-0.022 0.050c-0.478 1.008-0.514 1.957-0.112 2.946 0.301 0.739 1.010 1.512 1.702 1.854 0.667 0.328 0.973 0.357 3.709 0.338 2.618-0.018 2.611-0.016 2.965-0.352 0.282-0.267 0.379-0.526 0.379-0.997 0-0.49-0.11-0.763-0.41-1.016-0.349-0.293-0.326-0.291-2.922-0.291-2.658 0-2.618 0.005-2.922-0.341-0.214-0.245-0.218-0.387-0.016-0.875 0.509-1.265 1.458-2.264 2.654-2.825l0.032-0.014c0.632-0.301 1.165-0.422 2.091-0.482 1.24-0.077 1.92-0.264 2.752-0.755 0.456-0.269 1.272-1.048 1.579-1.509 1.454-2.174 1.142-5.027-0.758-6.933-0.576-0.591-1.293-1.042-2.097-1.299l-0.036-0.010c-0.496-0.158-1.731-0.198-2.293-0.074zM9.541 11.79c0.661 0.152 1.333 0.698 1.645 1.334 0.946 1.926-0.685 4.109-2.682 3.594-1.49-0.386-2.261-2.179-1.563-3.638 0.458-0.963 1.589-1.523 2.6-1.29zM22.722 17.842c1.346 0.219 2.664 0.923 3.733 1.995 0.632 0.637 1.046 1.221 1.437 2.034 0.301 0.626 0.336 0.898 0.181 1.357-0.12 0.35-0.554 0.795-0.856 0.875-0.158 0.043-1.845 0.056-5.84 0.045-5.549-0.014-5.618-0.014-5.802-0.123-0.358-0.21-0.693-0.896-0.619-1.27 0.090-0.45 0.632-1.509 1.088-2.126 0.789-1.042 1.823-1.858 3.019-2.37l0.048-0.018c0.73-0.316 1.58-0.499 2.473-0.499 0.402 0 0.796 0.037 1.178 0.109l-0.039-0.006z"></path>
</symbol>
<symbol id="icon-kitchen" viewBox="0 0 32 32">
<path d="M24.827 2.926c-0.269 0.123-1.811 1.69-2.608 2.646-2.163 2.6-3.542 5.23-4.184 7.974-0.358 1.533-0.491 2.762-0.526 4.91-0.032 1.904-0.021 1.997 0.264 2.323 0.336 0.382 0.173 0.363 3.427 0.392l2.933 0.027v1.6l-0.269 0.034c-0.289 0.021-0.544 0.151-0.727 0.348l-0.001 0.001c-0.307 0.323-0.309 0.342-0.309 2.829 0.002 2.107 0.010 2.299 0.101 2.496 0.069 0.137 0.152 0.255 0.252 0.357l-0-0c0.293 0.274 0.466 0.309 1.499 0.309 1.046-0.002 1.23-0.045 1.518-0.352 0.334-0.357 0.31 0.645 0.309-12.832-0.002-11.842-0.005-12.29-0.101-12.496-0.202-0.402-0.611-0.672-1.083-0.672-0.179 0-0.349 0.039-0.502 0.109l0.008-0.003zM6.16 4.259c-0.284 0.144-0.502 0.384-0.612 0.678l-0.003 0.009c-0.042 0.139-0.053 0.979-0.038 2.762 0.022 2.827 0.018 2.789 0.398 3.691 0.574 1.362 1.934 2.557 3.322 2.92l0.24 0.062 0.026 7.010c0.030 7.731 0.002 7.138 0.355 7.474 0.217 0.193 0.504 0.311 0.818 0.311s0.602-0.118 0.82-0.312l-0.001 0.001c0.354-0.336 0.326 0.258 0.355-7.474l0.027-7.010 0.24-0.062c1.386-0.363 2.746-1.558 3.32-2.92 0.381-0.902 0.378-0.864 0.4-3.691 0.014-1.782 0.002-2.622-0.040-2.762-0.112-0.302-0.329-0.543-0.606-0.683l-0.007-0.003c-0.146-0.063-0.315-0.099-0.493-0.099-0.319 0-0.611 0.117-0.835 0.31l0.002-0.001c-0.336 0.32-0.325 0.235-0.358 2.918-0.035 2.693-0.038 2.72-0.381 3.323-0.254 0.45-0.987 1.13-1.214 1.13-0.037 0-0.054-1.122-0.054-3.389 0-2.942-0.011-3.414-0.083-3.586-0.392-0.941-1.787-0.941-2.181 0-0.072 0.171-0.083 0.643-0.083 3.586 0 2.267-0.018 3.389-0.054 3.389-0.227 0-0.958-0.68-1.214-1.13-0.342-0.603-0.346-0.63-0.379-3.323-0.034-2.683-0.024-2.598-0.36-2.918-0.222-0.192-0.513-0.308-0.832-0.308-0.178 0-0.347 0.036-0.501 0.102l0.008-0.003zM24.136 18.76c-0.021 0.051-0.496 0.067-2.131 0.067-1.158 0-2.114-0.019-2.125-0.040-0.042-0.086 0.066-2.118 0.146-2.742 0.424-3.293 1.589-5.96 3.76-8.602l0.347-0.424 0.014 5.837c0.008 3.211 0.002 5.867-0.011 5.904z"></path>
</symbol>
<symbol id="icon-heart" viewBox="0 0 33 32">
<path d="M9.723 2.49c-1.652 0.055-3.429 0.663-4.815 1.645-0.592 0.42-1.503 1.309-1.913 1.871-1.199 1.635-1.772 3.361-1.772 5.333 0 1.969 0.565 3.673 1.769 5.333 0.444 0.613 12.656 12.831 13 13.007 0.365 0.187 0.984 0.187 1.349 0 0.344-0.176 12.556-12.393 13-13.007 1.211-1.669 1.769-3.363 1.769-5.361 0-2.4-0.912-4.571-2.64-6.277-1.566-1.565-3.73-2.534-6.12-2.534-0.026 0-0.052 0-0.078 0l0.004-0c-1.317 0.001-2.307 0.199-3.5 0.703-1.030 0.435-1.911 1.032-2.653 1.769l0.001-0.001-0.459 0.443-0.459-0.444c-0.742-0.734-1.622-1.33-2.598-1.744l-0.054-0.020c-1.027-0.457-2.224-0.723-3.484-0.723-0.123 0-0.245 0.003-0.367 0.008l0.017-0.001zM10.711 5.586c0.791 0.067 1.823 0.436 2.535 0.905 0.223 0.147 0.853 0.709 1.449 1.293 1.209 1.183 1.369 1.287 1.972 1.287s0.763-0.104 1.972-1.287c0.615-0.603 1.225-1.145 1.463-1.301 1.661-1.097 3.833-1.236 5.672-0.363 1.521 0.723 2.635 2.071 3.099 3.747 0.139 0.503 0.153 0.641 0.153 1.472s-0.015 0.969-0.153 1.472c-0.218 0.767-0.553 1.437-0.991 2.026l0.012-0.017c-0.191 0.251-2.633 2.736-5.779 5.88l-5.448 5.444-5.448-5.444c-3.145-3.144-5.588-5.629-5.779-5.88-0.425-0.573-0.761-1.242-0.968-1.966l-0.011-0.044c-0.139-0.503-0.153-0.641-0.153-1.472s0.015-0.969 0.153-1.472c0.543-2 2.075-3.548 4.026-4.102l0.041-0.010c0.479-0.137 1.315-0.245 1.667-0.213l0.516 0.044z"></path>
</symbol>
<symbol id="icon-heart-red" viewBox="0 0 32 32">
<path fill="#e44848" style="fill: var(--color2, #e44848)" d="M8.083 2.588c-3.54 0.563-6.401 3.157-7.248 6.568-0.166 0.614-0.261 1.32-0.261 2.047 0 0.047 0 0.095 0.001 0.142l-0-0.007c0 1.955 0.555 3.66 1.71 5.255 0.373 0.515 12.749 12.922 13.054 13.087 0.307 0.167 1.028 0.167 1.334 0 0.304-0.164 12.619-12.511 13.027-13.061 1.171-1.574 1.733-3.288 1.733-5.282 0-1.438-0.292-2.72-0.902-3.948-0.874-1.762-2.501-3.324-4.282-4.109-1.034-0.487-2.245-0.772-3.523-0.772-0.041 0-0.083 0-0.124 0.001l0.006-0c-0.027-0-0.059-0-0.091-0-1.668 0-3.226 0.472-4.547 1.29l0.037-0.021c-0.463 0.276-0.89 0.606-1.479 1.144l-0.519 0.473-0.586-0.531c-1.395-1.267-2.872-1.979-4.712-2.274-0.624-0.1-2.009-0.101-2.628-0.003z"></path>
</symbol>
<symbol id="icon-bed" viewBox="0 0 32 32">
<path d="M7.526 5.016c-1.166 0.306-2.214 1.36-2.514 2.531-0.101 0.394-0.106 0.592-0.106 3.605v3.189l-0.278 0.141c-0.997 0.499-1.885 1.477-2.35 2.586-0.381 0.906-0.374 0.811-0.397 5.17-0.024 4.333-0.035 4.171 0.317 4.531 0.243 0.25 0.445 0.336 0.784 0.339 0.011 0 0.023 0.001 0.036 0.001 0.295 0 0.563-0.115 0.762-0.302l-0.001 0.001c0.222-0.202 0.293-0.41 0.328-0.96 0.029-0.464 0.048-0.539 0.155-0.627 0.118-0.096 0.486-0.099 11.738-0.099s11.619 0.003 11.738 0.099c0.107 0.088 0.126 0.163 0.155 0.627 0.035 0.55 0.106 0.758 0.328 0.96 0.227 0.206 0.485 0.304 0.797 0.301 0.014 0.001 0.030 0.001 0.046 0.001 0.295 0 0.559-0.131 0.737-0.339l0.001-0.001c0.352-0.36 0.341-0.2 0.317-4.533-0.024-4.355-0.018-4.266-0.397-5.168-0.466-1.109-1.354-2.086-2.35-2.586l-0.278-0.141v-3.189c0-3.013-0.005-3.211-0.106-3.605-0.302-1.182-1.352-2.232-2.534-2.534-0.408-0.104-0.59-0.106-8.475-0.102-7.789 0.002-8.070 0.005-8.451 0.106zM24.066 7.245c0.299 0.147 0.654 0.531 0.742 0.802 0.074 0.226 0.133 3.443 0.062 3.413-0.845-0.383-1.009-0.464-1.172-0.545l0.674 0.303c-0.231-0.117-0.499-0.213-0.78-0.274l-0.023-0.004c-0.557-0.093-5.792-0.078-6.243 0.018-0.427 0.103-0.802 0.274-1.134 0.503l0.011-0.007-0.202 0.133-0.254-0.163c-0.338-0.23-0.737-0.399-1.167-0.483l-0.020-0.003c-0.478-0.077-5.666-0.075-6.13 0.003-0.304 0.066-0.572 0.162-0.823 0.287l0.020-0.009-0.494 0.24c-0.059 0.027-0.048-2.867 0.014-3.197 0.111-0.53 0.505-0.947 1.014-1.089l0.010-0.002c0.226-0.054 1.835-0.066 7.962-0.059l7.68 0.010 0.253 0.125zM14.373 13.219c0.248 0.114 0.315 0.184 0.427 0.451l0.082 0.197h-6.773l0.056-0.147c0.106-0.228 0.28-0.41 0.496-0.522l0.006-0.003c0.126-0.056 0.715-0.072 2.826-0.072 2.467 0 2.683 0.006 2.88 0.096zM23.322 13.194c0.228 0.111 0.408 0.295 0.511 0.52l0.003 0.007 0.056 0.147h-6.773l0.082-0.197c0.112-0.267 0.179-0.338 0.427-0.451 0.197-0.090 0.416-0.098 2.867-0.098 2.139-0.002 2.69 0.013 2.827 0.072zM25.523 16.165c0.702 0.126 1.499 0.666 1.893 1.28 0.096 0.149 0.235 0.43 0.31 0.626l0.139 0.357 0.016 2.226 0.018 2.227h-23.792v-2.043c0-1.227 0.022-2.17 0.058-2.36 0.205-1.133 1.238-2.139 2.395-2.333 0.074-0.013 4.299-0.026 9.39-0.030 6.403-0.005 9.354 0.011 9.573 0.051z"></path>
</symbol>
<symbol id="icon-transmission" viewBox="0 0 32 32">
<path d="M5.666 2.934c-1.301 0.341-2.4 1.448-2.734 2.752-0.068 0.295-0.107 0.633-0.107 0.981s0.039 0.686 0.113 1.011l-0.006-0.030c0.304 1.116 1.067 2.014 2.068 2.492l0.023 0.010 0.462 0.222 0.018 1.818 0.018 1.816 0.2 0.405c0.264 0.533 0.67 0.939 1.203 1.202l0.405 0.2 3.472 0.054 0.027 4.402 0.026 4.403 0.2 0.405c0.264 0.533 0.67 0.939 1.203 1.203l0.405 0.2 2.43 0.016c1.664 0.011 2.493-0.002 2.63-0.042 0.451-0.133 0.782-0.6 0.784-1.109 0.001-0.014 0.001-0.031 0.001-0.047 0-0.458-0.27-0.853-0.66-1.035l-0.007-0.003c-0.197-0.091-0.384-0.099-2.357-0.099-1.878-0.002-2.152-0.011-2.226-0.086-0.077-0.075-0.083-0.506-0.072-4.146l0.014-4.062 2.267-0.027c2.478-0.029 2.413-0.021 2.73-0.355 0.429-0.451 0.408-1.259-0.043-1.682-0.346-0.325-0.101-0.31-5.349-0.31-4.29 0-4.806-0.008-4.882-0.083-0.072-0.072-0.083-0.288-0.082-1.56l0.002-1.477 0.466-0.222c1.026-0.487 1.79-1.385 2.087-2.475l0.006-0.027c0.068-0.295 0.107-0.633 0.107-0.981s-0.039-0.686-0.113-1.011l0.006 0.030c-0.373-1.344-1.41-2.382-2.726-2.749l-0.028-0.007c-0.296-0.066-0.635-0.104-0.984-0.104-0.354 0-0.699 0.039-1.030 0.113l0.031-0.006zM7.197 5.318c0.531 0.189 0.92 0.762 0.92 1.35 0 0.004 0 0.008 0 0.013 0 0.786-0.638 1.424-1.424 1.424-0.009 0-0.018-0-0.027-0l0.001 0c-1 0-1.678-0.934-1.384-1.909 0.085-0.283 0.419-0.672 0.702-0.816 0.406-0.208 0.754-0.226 1.211-0.062zM22.16 9.595c-0.138 0.067-0.255 0.151-0.357 0.251l0-0c-0.318 0.341-0.31 0.216-0.309 4.165 0.002 3.405 0.006 3.627 0.101 3.829 0.4 0.867 1.662 0.899 2.13 0.053 0.069-0.125 0.094-0.36 0.115-1.093l0.027-0.933 0.773-0.032c1.122-0.046 1.589-0.24 2.294-0.95 0.438-0.443 0.742-0.974 0.848-1.488 0.035-0.218 0.055-0.469 0.055-0.725 0-0.26-0.021-0.514-0.060-0.763l0.004 0.027c-0.226-1.093-1.291-2.158-2.384-2.384-0.163-0.034-0.861-0.058-1.653-0.058-1.221 0.002-1.394 0.013-1.584 0.101zM25.075 11.989c0.227 0.144 0.375 0.393 0.375 0.678 0 0.286-0.15 0.537-0.376 0.679l-0.003 0.002c-0.152 0.094-0.269 0.114-0.693 0.117l-0.51 0.003-0.016-0.744c-0.004-0.088-0.007-0.192-0.007-0.296 0-0.185 0.008-0.368 0.023-0.549l-0.002 0.024c0.048-0.125 0.976-0.058 1.21 0.086zM22.16 21.595c-0.138 0.067-0.255 0.151-0.357 0.251l0-0c-0.315 0.336-0.31 0.282-0.309 3.499 0.002 2.755 0.008 2.962 0.101 3.162 0.124 0.263 0.335 0.468 0.596 0.581l0.008 0.003c0.318 0.133 2.234 0.117 2.782-0.022 1.344-0.373 2.381-1.411 2.747-2.728l0.007-0.028c0.144-0.558 0.144-1.403 0-1.962-0.372-1.344-1.41-2.381-2.726-2.747l-0.027-0.007c-0.346-0.088-0.589-0.106-1.509-0.104-0.955 0.002-1.126 0.014-1.312 0.101zM24.587 24.010c0.517 0.221 0.864 0.754 0.864 1.326 0 0.752-0.594 1.389-1.344 1.446l-0.24 0.018-0.014-1.413c-0.005-0.17-0.007-0.37-0.007-0.57 0-0.32 0.007-0.638 0.020-0.955l-0.002 0.045c0.035-0.090 0.395-0.038 0.723 0.102z"></path>
</symbol>
</defs>
</svg>
